<?xml version="1.0" encoding="UTF-8"?>
<svg id="Layer_1" data-name="Layer 1" xmlns="http://www.w3.org/2000/svg" viewBox="0 0 1080 1080">
  <defs>
    <style>
      .cls-1 {
        fill: #344784;
      }
    </style>
  </defs>
  <g id="ORcfjS">
    <g>
      <path class="cls-1" d="M907.09,618.52c-2.77-8.34-7.88-12.23-16.01-12.23-11.17,0-25.55,7.13-38.24,13.42-8.38,4.15-15.62,7.74-21.08,8.86-5.56,1.14-11.04,1.72-16.29,1.72-25.69,0-44.69-13.35-66.87-30.8l-2.47-1.94,1.99-2.42c28.76-34.97,58.36-73.18,79.98-115.59,1.82-3.57,4.93-12.39,7.94-20.92,4.95-14.03,7.13-19.92,8.76-21.79,2.8-3.2,7.07-3.69,11.21-4.15,5.18-.58,8.44-1.17,10.22-4.57,1.63-2.61,1.41-3.87-1.31-7.51-5.17-6.89-26.18-6.89-33.08-6.89-7.45,0-15.21.33-22.71.65-6.7.28-13.04.55-18.49.55-4.88,0-8.48-.21-11.27-.67l-113.18,8.98-.59-.2c-4.4-1.47-13.79-16.29-39.79-60.06-10.26-17.28-19.95-33.6-23.85-38.64l-.89-1.17c-2.53-3.34-4.92-6.5-8.44-6.81l-148.96,18.93-103.23,56.33-1.93,92.21-127.1,37.14-8.19,29.96-.73.61c-1.25,1.06-2.99,1.57-5.3,1.57-2.1,0-4.57-.4-7.18-.82-2.9-.47-5.89-.96-8.62-.96-5.23,0-8.48,1.49-8.56,8.9-.07,6.69,3.57,7.73,13.98,9.01,4.04.49,8.62,1.06,12.81,2.56,10.17,3.64,18,9.27,25.57,14.71,12.2,8.76,23.72,17.04,44.93,18.23,1.23.07,2.43.1,3.62.1,15.53,0,28.64-5.75,41.32-11.31,12.6-5.53,25.64-11.24,40.85-11.24,9.63,0,19.24,2.24,29.37,6.86,11.27,5.13,18.65,10.38,25.16,15.01,11.24,7.99,19.36,13.77,40.97,13.77,4.42,0,9.41-.25,14.83-.74,10.82-.98,21.41-5.99,31.65-10.83,11.36-5.37,23.11-10.92,35.21-10.92h.77c18.33.36,32.56,9.66,46.32,18.66,12.16,7.94,23.64,15.45,37.93,17.54,4.74.69,9.37,1.05,13.78,1.05,18.02,0,30.87-5.78,43.3-11.37,12.05-5.42,23.43-10.54,38.63-10.54,1.47,0,2.98.05,4.52.15,16.19,1.08,28.76,9,42.07,17.38,15.07,9.49,30.65,19.3,53,19.68h1.28c16.36,0,26.71-5.29,37.67-10.9,7.67-3.93,15.6-7.99,25.63-10.04,2.87-.59,5.88-.67,8.18-.67,1.13,0,2.28.02,3.41.04,1.09.02,2.18.04,3.26.04,7.96,0,12.43-1.25,14.24-7.93ZM817.51,445.13l5.84-.96-20.97,43.34-1.4.35c-84.94,21.09-185.43,44.17-286.64,55.43l-10.97,1.22,8.77-6.71c74.55-57.07,171.39-71.94,265.05-86.33,13.32-2.05,27.08-4.16,40.32-6.34ZM588.8,334.81l52.98,91.13-129.05,19.06-52.77-94.51,128.83-15.68ZM357.39,401.77l86.97-46.67,49.71,93.58-136.68,30.94v-77.85ZM377.67,564.77c-2.78.33-5.85.49-9.37.49h0c-3.07,0-6.16-.12-9.28-.23-3.07-.12-6.15-.24-9.24-.24-4.32,0-7.86.24-11.15.74-8.76,1.35-17.7,6-26.34,10.49-9.18,4.77-17.85,9.28-26.62,10.35-2.3.28-4.8.42-7.42.42-20.26,0-46.54-8.3-55.34-23.68-3.3-5.77-5.69-15.28,1.68-27.79l.61-1.03,1.15-.35c167.44-50.39,330.25-83.38,483.88-98.04l1.08,6.02-100.46,26.74c-58.47,18.79-104.06,39.93-136.54,82.03l-.82,1.07-1.35.11c-18.26,1.57-36.76,4.44-54.65,7.21-13.04,2.02-26.52,4.11-39.83,5.69ZM725.32,594.18c-3.73-.67-7.5-1.02-11.2-1.02-15.23,0-28.36,5.77-41.06,11.34-12.69,5.57-25.82,11.34-40.94,11.34-7.72,0-15.29-1.46-23.16-4.47-7.43-2.84-14.5-8.1-21.34-13.19-6.02-4.48-12.24-9.11-18.37-11.76-11.48-4.97-22.26-7.39-32.95-7.39-16.46,0-30.36,5.82-43.8,11.46-13.32,5.58-25.9,10.86-40.6,10.86-4.94,0-9.94-.63-14.85-1.87-5.88-1.48-10.92-4.41-15.79-7.23-4.2-2.44-8.18-4.74-12.55-6.1l.34-5.95,382.34-72.02-64.2,86.32-1.87-.34Z"/>
      <path class="cls-1" d="M890.89,723.84c-14.83,0-27.27,5.48-39.29,10.78-12.03,5.3-24.48,10.78-39.19,10.78-8.98,0-17.98-2-27.5-6.12-6.5-2.82-12.61-7.36-18.52-11.75-5.84-4.34-11.35-8.43-17.13-10.95-12.09-5.27-23.21-7.83-34.02-7.83-15.97,0-29.27,5.72-42.13,11.26-12.94,5.57-26.32,11.33-42.34,11.33-3.66,0-7.4-.31-11.11-.91-11.27-1.83-21.79-9.47-31.96-16.87-6.86-4.98-13.34-9.69-19.59-12.32-11.47-4.82-22.06-7.16-32.37-7.16-15.36,0-27.84,5.12-41.07,10.54-13.45,5.52-27.36,11.22-44.56,11.22-3.78,0-7.64-.28-11.5-.83-11.28-1.62-20.6-8.17-30.46-15.11-11.58-8.15-23.56-16.57-40.32-18.42-3.49-.38-6.95-.58-10.28-.58-18.83,0-32.25,6.05-45.23,11.91-11.8,5.32-22.94,10.35-36.94,10.35-.79,0-1.6-.02-2.41-.05-17.73-.73-32.18-10.07-46.16-19.1-13.56-8.76-26.36-17.03-41.2-17.03-4.13,0-8.19.63-12.37,1.92-.79,5.76-.41,9.71,1.13,11.76,1.65,2.19,4.87,2.66,9.99,3.24,3.53.4,7.53.86,11.46,2.35,10.4,3.96,18.2,9.52,25.74,14.9,11.07,7.9,21.53,15.37,39.46,17.2,5.72.59,10.6.87,14.91.87,14.05,0,20.63-3.06,30.59-7.69,4.96-2.31,10.58-4.92,18.22-7.7,11.37-4.14,21.39-6.15,30.64-6.15,18.9,0,31.14,8.31,44.1,17.12,11.94,8.11,24.28,16.5,43.04,18.6,3.35.38,6.67.57,9.85.57,17.52,0,30.22-5.7,42.5-11.21,11.75-5.27,23.89-10.72,39.6-10.72,1.92,0,3.89.08,5.85.24,16.39,1.35,28.86,9.75,40.92,17.87,11.71,7.89,23.82,16.04,39.9,18.15,3.5.46,6.97.69,10.32.69,16.28,0,28.51-5.22,41.45-10.75,12.78-5.46,26-11.11,43.12-11.11,2.84,0,5.76.16,8.68.47,15.47,1.65,25.21,9.31,34.63,16.72,6.33,4.98,12.3,9.67,19.91,12.6,11.72,4.51,21.91,6.71,31.16,6.71,13.18,0,23.79-4.41,36.08-9.52,7.48-3.11,15.95-6.63,25.96-9.52,4.59-1.33,9.87-1.97,14.98-2.6,8.56-1.05,17.41-2.14,19.53-6.23,1.13-2.19.54-5.65-1.78-10.3-4.87-1.09-9.57-1.63-14.29-1.63Z"/>
      <path class="cls-1" d="M907.07,676.89c-3.11-8.47-8.44-12.43-16.73-12.43-10.91,0-24.89,6.77-37.21,12.75-8.24,4-16.03,7.77-22.01,9.03-5.47,1.15-10.84,1.74-15.95,1.74-20.64,0-35.64-9.4-50.15-18.5-14.34-8.99-29.17-18.29-49.94-18.85-.61-.02-1.21-.03-1.81-.03-15.11,0-26.59,5.18-38.74,10.67-12.61,5.69-25.65,11.58-43.15,11.58-3.76,0-7.66-.28-11.6-.83-12.66-1.77-22.71-8.74-33.35-16.13-11.1-7.7-22.57-15.66-37.47-17.38-5.66-.65-10.62-.97-15.15-.97-15.48,0-23.45,3.71-34.49,8.85-5.84,2.72-12.47,5.8-21.28,8.8-8.57,2.91-16.43,4.33-24.03,4.33-18.83,0-32.57-9.04-45.86-17.77-12.55-8.26-25.53-16.79-43.43-18.52-2.83-.27-5.66-.41-8.4-.41-17.86,0-31.1,5.84-43.92,11.49-12.48,5.5-24.26,10.69-39.5,10.69-2.12,0-4.28-.1-6.43-.31-14.66-1.41-27.5-9.94-39.91-18.19-13.6-9.04-27.66-18.38-44.11-18.38-.9,0-1.82.03-2.74.08-7.05,6.77-7.53,10.13-7.16,11.55.96,3.72,9.98,5.95,17.22,7.75,4.26,1.06,8.67,2.15,12.16,3.61,6.94,2.9,12.76,7.2,18.92,11.76,6.93,5.12,14.09,10.42,23.06,13.6,12.13,4.31,21.81,6.32,30.46,6.32,12.24,0,21.24-4.13,32.64-9.36,6.98-3.2,14.9-6.83,24.86-10.09,8.07-2.64,15.48-3.92,22.67-3.92,18.81,0,32.31,9.09,45.37,17.87,11.59,7.8,23.57,15.86,39.55,17.79,5.72.69,10.79,1.03,15.48,1.03,16.62,0,25.21-4.37,35.16-9.42,7.04-3.57,15.02-7.63,26.76-10.59,5.77-1.45,11.42-2.19,16.77-2.19,19.25,0,33.24,9.36,46.77,18.41,11.89,7.96,24.19,16.18,40.23,18.1,3.35.4,6.71.61,9.97.61,17.5,0,31.19-5.8,44.43-11.41,12.94-5.48,25.17-10.66,40.3-10.66,2.07,0,4.17.1,6.25.3,15.4,1.48,27.16,9.16,39.6,17.3,14.6,9.55,29.71,19.43,52.29,19.78h.97c15.66,0,26.9-5.93,37.78-11.67,7.5-3.96,14.59-7.7,22.69-9.31,2.21-.44,4.71-.64,7.88-.64,1.64,0,3.31.05,4.97.1,1.58.05,3.16.1,4.71.1,7.9,0,12.63-1.3,14.59-8.02Z"/>
    </g>
  </g>
</svg>